<svg xmlns="http://www.w3.org/2000/svg" width="18" height="18" viewBox="0 0 18 18" fill="none">
<path d="M1 17C1 13.8653 3.60771 11.2721 7 10.8408M16.8726 11.8478C16.8044 11.8515 16.7357 11.8533 16.6667 11.8533C15.6422 11.8533 14.7077 11.4466 14 10.7778C13.2923 11.4466 12.3578 11.8532 11.3333 11.8532C11.2643 11.8532 11.1956 11.8514 11.1274 11.8477C11.0442 12.1869 11 12.5427 11 12.9092C11 14.8774 12.2748 16.5311 14 17C15.7252 16.5311 17 14.8774 17 12.9092C17 12.5427 16.9558 12.1869 16.8726 11.8478ZM12 4.55556C12 6.51924 10.2091 8.11111 8 8.11111C5.79086 8.11111 4 6.51924 4 4.55556C4 2.59188 5.79086 1 8 1C10.2091 1 12 2.59188 12 4.55556Z" stroke="#1E90FF" stroke-width="1.33333" stroke-linecap="round" stroke-linejoin="round"/>
</svg>