<svg xmlns="http://www.w3.org/2000/svg" width="16" height="16" viewBox="0 0 16 16" fill="none">
<path d="M14.0338 0H7.03375C6.63593 0 6.2544 0.158034 5.97309 0.439339C5.69179 0.720643 5.53375 1.10218 5.53375 1.5V4.5C5.53375 4.63261 5.58643 4.75979 5.6802 4.85355C5.77397 4.94732 5.90115 5 6.03375 5C6.16636 5 6.29354 4.94732 6.38731 4.85355C6.48108 4.75979 6.53375 4.63261 6.53375 4.5V1.5C6.53375 1.36739 6.58643 1.24021 6.6802 1.14645C6.77397 1.05268 6.90115 1 7.03375 1H14.0338C14.1664 1 14.2935 1.05268 14.3873 1.14645C14.4811 1.24021 14.5338 1.36739 14.5338 1.5V15H12.5338V11.5C12.5338 11.3674 12.4811 11.2402 12.3873 11.1464C12.2935 11.0527 12.1664 11 12.0338 11H9.03375C8.90115 11 8.77397 11.0527 8.6802 11.1464C8.58643 11.2402 8.53375 11.3674 8.53375 11.5V15H7.03375C6.90115 15 6.77397 15.0527 6.6802 15.1464C6.58643 15.2402 6.53375 15.3674 6.53375 15.5C6.53375 15.6326 6.58643 15.7598 6.6802 15.8536C6.77397 15.9473 6.90115 16 7.03375 16H15.5338V1.5C15.5338 1.10218 15.3757 0.720643 15.0944 0.439339C14.8131 0.158034 14.4316 0 14.0338 0ZM9.53375 15V12H11.5338V15H9.53375ZM9.53375 5H7.53375V3H9.53375V5ZM13.5338 5H11.5338V3H13.5338V5ZM11.5338 7H13.5338V9H11.5338V7ZM7.77875 9H9.53375V7H7.53375V8.526C7.3594 8.20468 7.14207 7.90862 6.88775 7.646C6.13007 6.8905 5.10374 6.46625 4.03375 6.46625C2.96377 6.46625 1.93744 6.8905 1.17975 7.646C0.424253 8.40369 0 9.43002 0 10.5C0 11.57 0.424253 12.5963 1.17975 13.354L3.67975 15.854C3.72627 15.9004 3.78148 15.9372 3.84222 15.9622C3.90297 15.9873 3.96805 16.0001 4.03375 16C4.09946 16.0001 4.16454 15.9873 4.22528 15.9622C4.28603 15.9372 4.34124 15.9004 4.38775 15.854L6.88775 13.354C7.44554 12.7948 7.8272 12.0843 7.98555 11.3105C8.1439 10.5367 8.07201 9.7334 7.77875 9ZM4.03375 14.793L1.88775 12.646C1.31911 12.0766 0.99972 11.3047 0.99972 10.5C0.99972 9.69526 1.31911 8.92342 1.88775 8.354C2.16929 8.07186 2.50382 7.84817 2.87211 7.69577C3.2404 7.54337 3.63518 7.46529 4.03375 7.466C4.43233 7.46529 4.82711 7.54337 5.1954 7.69577C5.56369 7.84817 5.89822 8.07186 6.17975 8.354C6.74839 8.92342 7.06779 9.69526 7.06779 10.5C7.06779 11.3047 6.74839 12.0766 6.17975 12.646L4.03375 14.793ZM5.53375 10.5C5.53375 10.8978 5.37572 11.2794 5.09441 11.5607C4.81311 11.842 4.43158 12 4.03375 12C3.63593 12 3.2544 11.842 2.97309 11.5607C2.69179 11.2794 2.53375 10.8978 2.53375 10.5C2.53375 10.1022 2.69179 9.72064 2.97309 9.43934C3.2544 9.15803 3.63593 9 4.03375 9C4.43158 9 4.81311 9.15803 5.09441 9.43934C5.37572 9.72064 5.53375 10.1022 5.53375 10.5Z" fill="#1E90FF"/>
</svg>