<svg xmlns="http://www.w3.org/2000/svg" width="18" height="18" viewBox="0 0 18 18" fill="none">
<path d="M1.49992 1.5L4.49088 4.49097M16.4999 16.5L13.5092 13.5093M10.5623 14.6872C10.0563 14.7831 9.53419 14.8333 9.0003 14.8333C5.26892 14.8333 2.11034 12.3809 1.04846 8.99997C1.33754 8.07958 1.78201 7.22801 2.35111 6.47598M7.23215 7.23223C7.68456 6.77982 8.30956 6.5 8.99992 6.5C10.3806 6.5 11.4999 7.61929 11.4999 9C11.4999 9.69036 11.2201 10.3154 10.7677 10.7678M7.23215 7.23223L10.7677 10.7678M7.23215 7.23223L4.49088 4.49097M10.7677 10.7678L4.49088 4.49097M10.7677 10.7678L13.5092 13.5093M4.49088 4.49097C5.79074 3.65295 7.33872 3.16667 9.00028 3.16667C12.7317 3.16667 15.8902 5.61909 16.9521 9.00003C16.363 10.8756 15.1287 12.4654 13.5092 13.5093" stroke="#858C93" stroke-width="1.25" stroke-linecap="round" stroke-linejoin="round"/>
</svg>
