<svg width="16" height="14" viewBox="0 0 16 14" fill="none" xmlns="http://www.w3.org/2000/svg">
<path d="M15.4667 12.8671H14.4V5.40043C14.4 5.11754 14.2876 4.84622 14.0876 4.64619C13.8875 4.44615 13.6162 4.33377 13.3333 4.33377H9.06667V1.13377C9.06679 0.940609 9.01447 0.751042 8.91527 0.5853C8.81608 0.419557 8.67374 0.283861 8.50345 0.192693C8.33316 0.101525 8.14131 0.0583089 7.94838 0.0676562C7.75545 0.0770034 7.56868 0.138564 7.408 0.245766L2.07467 3.80043C1.92836 3.89805 1.80846 4.03032 1.72564 4.18549C1.64283 4.34065 1.59967 4.51389 1.6 4.68977V12.8671H0.533333C0.391885 12.8671 0.256229 12.9233 0.15621 13.0233C0.0561903 13.1233 0 13.259 0 13.4004C0 13.5419 0.0561903 13.6775 0.15621 13.7776C0.256229 13.8776 0.391885 13.9338 0.533333 13.9338H15.4667C15.6081 13.9338 15.7438 13.8776 15.8438 13.7776C15.9438 13.6775 16 13.5419 16 13.4004C16 13.259 15.9438 13.1233 15.8438 13.0233C15.7438 12.9233 15.6081 12.8671 15.4667 12.8671ZM13.3333 5.40043V12.8671H9.06667V5.40043H13.3333ZM2.66667 4.68977L8 1.13377V12.8671H2.66667V4.68977ZM6.93333 6.4671V7.53377C6.93333 7.67521 6.87714 7.81087 6.77712 7.91089C6.6771 8.01091 6.54145 8.0671 6.4 8.0671C6.25855 8.0671 6.1229 8.01091 6.02288 7.91089C5.92286 7.81087 5.86667 7.67521 5.86667 7.53377V6.4671C5.86667 6.32565 5.92286 6.18999 6.02288 6.08998C6.1229 5.98996 6.25855 5.93377 6.4 5.93377C6.54145 5.93377 6.6771 5.98996 6.77712 6.08998C6.87714 6.18999 6.93333 6.32565 6.93333 6.4671ZM4.8 6.4671V7.53377C4.8 7.67521 4.74381 7.81087 4.64379 7.91089C4.54377 8.01091 4.40812 8.0671 4.26667 8.0671C4.12522 8.0671 3.98956 8.01091 3.88954 7.91089C3.78952 7.81087 3.73333 7.67521 3.73333 7.53377V6.4671C3.73333 6.32565 3.78952 6.18999 3.88954 6.08998C3.98956 5.98996 4.12522 5.93377 4.26667 5.93377C4.40812 5.93377 4.54377 5.98996 4.64379 6.08998C4.74381 6.18999 4.8 6.32565 4.8 6.4671ZM4.8 10.2004V11.2671C4.8 11.4085 4.74381 11.5442 4.64379 11.6442C4.54377 11.7442 4.40812 11.8004 4.26667 11.8004C4.12522 11.8004 3.98956 11.7442 3.88954 11.6442C3.78952 11.5442 3.73333 11.4085 3.73333 11.2671V10.2004C3.73333 10.059 3.78952 9.92333 3.88954 9.82331C3.98956 9.72329 4.12522 9.6671 4.26667 9.6671C4.40812 9.6671 4.54377 9.72329 4.64379 9.82331C4.74381 9.92333 4.8 10.059 4.8 10.2004ZM6.93333 10.2004V11.2671C6.93333 11.4085 6.87714 11.5442 6.77712 11.6442C6.6771 11.7442 6.54145 11.8004 6.4 11.8004C6.25855 11.8004 6.1229 11.7442 6.02288 11.6442C5.92286 11.5442 5.86667 11.4085 5.86667 11.2671V10.2004C5.86667 10.059 5.92286 9.92333 6.02288 9.82331C6.1229 9.72329 6.25855 9.6671 6.4 9.6671C6.54145 9.6671 6.6771 9.72329 6.77712 9.82331C6.87714 9.92333 6.93333 10.059 6.93333 10.2004Z" fill="#1E90FF"/>
</svg>
