<svg width="27" height="24" viewBox="0 0 27 24" fill="none" xmlns="http://www.w3.org/2000/svg">
<path fill-rule="evenodd" clip-rule="evenodd" d="M4.33325 6.66667C4.33325 7.02029 4.19278 7.35943 3.94273 7.60948C3.69268 7.85952 3.35354 8 2.99992 8C2.6463 8 2.30716 7.85952 2.05711 7.60948C1.80706 7.35943 1.66659 7.02029 1.66659 6.66667V3.89733C1.66659 2.884 1.77592 2.31733 2.09192 1.728C2.38925 1.16933 2.83592 0.722667 3.39459 0.425333C3.98392 0.109333 4.54925 0 5.56392 0H8.33325C8.68687 0 9.02601 0.140476 9.27606 0.390524C9.52611 0.640573 9.66658 0.979711 9.66658 1.33333C9.66658 1.68696 9.52611 2.02609 9.27606 2.27614C9.02601 2.52619 8.68687 2.66667 8.33325 2.66667H5.56392C4.95192 2.66667 4.80392 2.696 4.65192 2.776C4.56204 2.82227 4.48886 2.89546 4.44258 2.98533C4.36258 3.136 4.33325 3.28533 4.33325 3.89733V6.66667ZM8.33325 21.3333C8.68687 21.3333 9.02601 21.4738 9.27606 21.7239C9.52611 21.9739 9.66658 22.313 9.66658 22.6667C9.66658 23.0203 9.52611 23.3594 9.27606 23.6095C9.02601 23.8595 8.68687 24 8.33325 24H5.56392C4.55058 24 3.98392 23.8907 3.39459 23.5747C2.84028 23.2799 2.38666 22.8263 2.09192 22.272C1.77592 21.6827 1.66659 21.1173 1.66659 20.1027V17.3333C1.66659 16.9797 1.80706 16.6406 2.05711 16.3905C2.30716 16.1405 2.6463 16 2.99992 16C3.35354 16 3.69268 16.1405 3.94273 16.3905C4.19278 16.6406 4.33325 16.9797 4.33325 17.3333V20.1027C4.33325 20.7147 4.36258 20.8627 4.44258 21.0147C4.49325 21.108 4.55858 21.1747 4.65192 21.224C4.80258 21.304 4.95192 21.3333 5.56392 21.3333H8.33325ZM17.6666 1.33333C17.6666 1.68696 17.8071 2.02609 18.0571 2.27614C18.3072 2.52619 18.6463 2.66667 18.9999 2.66667H21.7693C22.3813 2.66667 22.5293 2.696 22.6812 2.776C22.7746 2.82667 22.8412 2.892 22.8906 2.98533C22.9706 3.136 22.9999 3.28533 22.9999 3.89733V6.66667C22.9999 7.02029 23.1404 7.35943 23.3904 7.60948C23.6405 7.85952 23.9796 8 24.3333 8C24.6869 8 25.026 7.85952 25.2761 7.60948C25.5261 7.35943 25.6666 7.02029 25.6666 6.66667V3.89733C25.6666 2.884 25.5573 2.31733 25.2413 1.728C24.9465 1.17369 24.4929 0.720074 23.9386 0.425333C23.3493 0.109333 22.7839 0 21.7693 0H18.9999C18.6463 0 18.3072 0.140476 18.0571 0.390524C17.8071 0.640573 17.6666 0.979711 17.6666 1.33333ZM22.9999 17.3333C22.9999 16.9797 23.1404 16.6406 23.3904 16.3905C23.6405 16.1405 23.9796 16 24.3333 16C24.6869 16 25.026 16.1405 25.2761 16.3905C25.5261 16.6406 25.6666 16.9797 25.6666 17.3333V20.1027C25.6666 21.116 25.5573 21.6827 25.2413 22.272C24.9464 22.8263 24.4928 23.2799 23.9386 23.5747C23.3493 23.8907 22.7839 24 21.7693 24H18.9999C18.6463 24 18.3072 23.8595 18.0571 23.6095C17.8071 23.3594 17.6666 23.0203 17.6666 22.6667C17.6666 22.313 17.8071 21.9739 18.0571 21.7239C18.3072 21.4738 18.6463 21.3333 18.9999 21.3333H21.7693C22.3813 21.3333 22.5293 21.304 22.6812 21.224C22.7712 21.1778 22.8444 21.1046 22.8906 21.0147C22.9706 20.864 22.9999 20.7147 22.9999 20.1027V17.3333ZM1.66659 10.6667C1.31296 10.6667 0.973825 10.8071 0.723776 11.0572C0.473728 11.3072 0.333252 11.6464 0.333252 12C0.333252 12.3536 0.473728 12.6928 0.723776 12.9428C0.973825 13.1929 1.31296 13.3333 1.66659 13.3333H25.6666C26.0202 13.3333 26.3593 13.1929 26.6094 12.9428C26.8594 12.6928 26.9999 12.3536 26.9999 12C26.9999 11.6464 26.8594 11.3072 26.6094 11.0572C26.3593 10.8071 26.0202 10.6667 25.6666 10.6667H1.66659Z" fill="#F4FAFF"/>
</svg>
