<svg xmlns="http://www.w3.org/2000/svg" width="12" height="12" viewBox="0 0 12 12" fill="none">
<path fill-rule="evenodd" clip-rule="evenodd" d="M5.69444 1.625C3.58502 1.625 1.875 3.33502 1.875 5.44444C1.875 7.55387 3.58502 9.26389 5.69444 9.26389C7.80387 9.26389 9.51389 7.55387 9.51389 5.44444C9.51389 3.33502 7.80387 1.625 5.69444 1.625ZM0.625 5.44444C0.625 2.64467 2.89467 0.375 5.69444 0.375C8.49422 0.375 10.7639 2.64467 10.7639 5.44444C10.7639 8.24422 8.49422 10.5139 5.69444 10.5139C2.89467 10.5139 0.625 8.24422 0.625 5.44444Z" fill="#858C93"/>
<path fill-rule="evenodd" clip-rule="evenodd" d="M8.39009 8.14009C8.63417 7.89601 9.0299 7.89601 9.27397 8.14009L11.6906 10.5568C11.9347 10.8008 11.9347 11.1966 11.6906 11.4406C11.4466 11.6847 11.0508 11.6847 10.8068 11.4406L8.39009 9.02397C8.14601 8.7799 8.14601 8.38417 8.39009 8.14009Z" fill="#858C93"/>
</svg>