<svg xmlns="http://www.w3.org/2000/svg" width="24" height="22" viewBox="0 0 24 22" fill="none">
<g clip-path="url(#clip0_1526_63879)">
<path d="M12.3935 7.5218C12.4316 7.53769 12.4696 7.55359 12.5089 7.56996C12.5907 7.60417 12.6725 7.63851 12.7542 7.67299C12.9269 7.74582 13.0999 7.81798 13.2729 7.89017C13.3611 7.92698 13.4492 7.96381 13.5373 8.00068C13.9425 8.1701 14.3493 8.33621 14.7568 8.50109C14.8202 8.52677 14.8836 8.55245 14.947 8.57813C15.2214 8.68925 15.496 8.79988 15.7711 8.9098C15.8157 8.92765 15.8603 8.94551 15.9063 8.9639C15.9867 8.996 16.0672 9.02801 16.1477 9.0599C16.4011 9.16094 16.4011 9.16094 16.4531 9.20735C16.4576 9.32581 16.459 9.44325 16.4584 9.56172C16.4585 9.59887 16.4585 9.63602 16.4585 9.6743C16.4584 9.79773 16.4581 9.92115 16.4577 10.0446C16.4576 10.1299 16.4575 10.2152 16.4575 10.3006C16.4573 10.5256 16.4569 10.7507 16.4563 10.9757C16.4559 11.2052 16.4557 11.4347 16.4554 11.6642C16.4549 12.1147 16.4541 12.5653 16.4531 13.0159C16.4048 13.0301 16.3565 13.0443 16.3067 13.0589C16.2428 13.0778 16.1788 13.0967 16.1148 13.1156C16.083 13.125 16.0512 13.1343 16.0185 13.1439C15.7941 13.2103 15.5794 13.2832 15.3691 13.3795C15.3228 13.4006 15.3228 13.4006 15.2755 13.4222C14.1431 13.9567 13.318 14.9072 12.9388 15.9912C12.8164 16.3867 12.76 16.7951 12.7031 17.2012C10.8778 17.2012 9.0525 17.2012 7.17188 17.2012C7.17188 14.5632 7.17188 11.9253 7.17188 9.20735C8.03423 8.82237 8.03423 8.82237 8.34064 8.69711C8.37599 8.68255 8.41134 8.66799 8.44776 8.65299C8.56049 8.60661 8.67331 8.56038 8.78613 8.51416C8.86573 8.48147 8.94533 8.44876 9.02493 8.41605C9.61677 8.17302 10.2095 7.93163 10.8026 7.69108C10.8326 7.67889 10.8627 7.6667 10.8936 7.65414C10.9782 7.61994 11.0629 7.58601 11.1476 7.55208C11.2401 7.51449 11.332 7.47585 11.4231 7.4356C11.4594 7.41981 11.4957 7.40401 11.5331 7.38774C11.5628 7.37422 11.5925 7.3607 11.6231 7.34677C11.8951 7.28197 12.1539 7.41981 12.3935 7.5218ZM11.6631 9.47678C11.5453 9.62545 11.5447 9.73826 11.5313 9.91885C11.4916 9.92597 11.452 9.93309 11.4111 9.94043C10.915 10.0351 10.5127 10.1549 10.1807 10.5126C10.0848 10.7154 10.0414 10.9256 10.1058 11.1416C10.2716 11.4725 10.5995 11.6727 10.9688 11.8022C11.2382 11.8838 11.4945 11.9047 11.7773 11.9225C12.209 11.955 12.5869 11.9983 12.9434 12.2338C13.0558 12.3777 13.085 12.4635 13.0781 12.6393C12.9165 12.893 12.6815 12.9776 12.375 13.0578C11.7272 13.1749 11.076 13.0872 10.454 12.9051C10.3768 12.8825 10.2978 12.8651 10.2188 12.8485C10.0688 12.9172 10.0688 12.9172 10.0518 13.0316C10.067 13.1524 10.067 13.1524 10.1993 13.2264C10.6075 13.4369 11.1123 13.5009 11.5781 13.5182C11.5743 13.57 11.5704 13.6218 11.5664 13.6751C11.5664 13.8091 11.5722 13.8453 11.6602 13.9602C11.7592 14.0297 11.7592 14.0297 11.8682 14.0152C11.9618 13.9843 11.9618 13.9843 12 13.8948C12.0033 13.8304 12.004 13.7658 12.0029 13.7013C12.0025 13.6671 12.0021 13.6329 12.0016 13.5976C12.0011 13.5714 12.0006 13.5452 12 13.5182C12.0357 13.5141 12.0714 13.51 12.1082 13.5058C12.4279 13.4644 12.7007 13.4062 12.9844 13.2671C13.0143 13.253 13.0442 13.2389 13.075 13.2244C13.3282 13.0868 13.4597 12.8896 13.5469 12.6393C13.5671 12.4416 13.5228 12.3017 13.4209 12.1266C13.0629 11.7465 12.6069 11.5732 12.0577 11.5305C11.9789 11.5251 11.9001 11.5198 11.8213 11.5145C11.3738 11.4792 10.9266 11.4298 10.5938 11.1326C10.5257 11.0111 10.5294 10.9328 10.5469 10.7978C10.7214 10.5291 10.9717 10.4606 11.2969 10.3792C11.929 10.2469 12.6685 10.3679 13.2665 10.5777C13.3669 10.5983 13.3669 10.5983 13.4654 10.5287C13.4923 10.507 13.5192 10.4853 13.5469 10.4629C13.5417 10.3614 13.5417 10.3614 13.5 10.2537C13.1109 10.0123 12.4703 9.91885 12 9.91885C12.0005 9.89263 12.0011 9.86641 12.0016 9.83939C12.0021 9.80519 12.0025 9.77098 12.0029 9.73574C12.0035 9.70175 12.004 9.66776 12.0046 9.63274C12.0068 9.5401 12.0068 9.5401 11.9531 9.45847C11.823 9.40239 11.7853 9.40508 11.6631 9.47678Z" fill="#242424"/>
<path d="M20.253 14.0299C20.3809 14.1213 20.5042 14.2154 20.626 14.3131C20.6591 14.3392 20.6923 14.3653 20.7264 14.3922C21.4879 15.0293 21.9898 16.0185 22.0323 16.9498C22.0347 16.9915 22.0371 17.0332 22.0396 17.0762C22.0742 18.2008 21.6271 19.1613 20.7919 19.9946C20.109 20.6383 19.0978 21.1312 18.0956 21.1843C16.6389 21.2098 15.524 20.9733 14.4385 20.0469C14.4063 20.0213 14.3741 19.9956 14.3409 19.9692C13.5688 19.3315 13.1645 18.3303 13.1156 17.4102C13.0809 16.3751 13.4361 15.3587 14.2276 14.5877C14.312 14.5086 14.3982 14.4318 14.4854 14.3549C14.5201 14.324 14.5548 14.2931 14.5905 14.2612C16.1225 12.9711 18.5893 12.9391 20.253 14.0299ZM17.4004 13.7899C17.316 13.9486 17.354 14.0583 17.3917 14.2294C17.4441 14.2856 17.4441 14.2856 17.5792 14.2765C17.7142 14.2856 17.7142 14.2856 17.7667 14.2294C17.7725 14.1606 17.7749 14.0917 17.7754 14.0227C17.7764 13.9665 17.7764 13.9665 17.7775 13.9091C17.7775 13.8028 17.7775 13.8028 17.6729 13.7271C17.4911 13.7093 17.4911 13.7093 17.4004 13.7899ZM17.4385 15.192C17.3261 15.3484 17.334 15.4861 17.3356 15.6687C17.3358 15.6982 17.3359 15.7277 17.336 15.7581C17.3366 15.8519 17.3377 15.9457 17.3389 16.0395C17.3394 16.1033 17.3398 16.167 17.3402 16.2308C17.3412 16.3867 17.3429 16.5427 17.3448 16.6987C17.2901 16.7153 17.2901 16.7153 17.2344 16.7322C17.0577 16.8037 16.9889 16.9189 16.9229 17.0754C16.8929 17.2936 16.9268 17.4362 17.0635 17.6194C17.2579 17.7653 17.418 17.8287 17.6729 17.8287C17.889 17.765 18.0782 17.6786 18.1885 17.4939C18.1885 17.4663 18.1885 17.4386 18.1885 17.4102C18.2343 17.4112 18.2343 17.4112 18.281 17.4122C18.4191 17.4148 18.5572 17.4164 18.6954 17.418C18.7434 17.4191 18.7914 17.4201 18.8408 17.4212C18.8869 17.4216 18.933 17.422 18.9805 17.4224C19.0229 17.4231 19.0654 17.4237 19.1092 17.4244C19.2397 17.4076 19.2796 17.3751 19.3604 17.2846C19.3094 17.1486 19.3094 17.1486 19.2198 17.0335C19.1464 17.0305 19.0729 17.03 18.9995 17.0306C18.9544 17.0301 18.9093 17.0297 18.8628 17.0292C18.7677 17.0286 18.6726 17.0289 18.5775 17.0302C18.2345 17.0245 18.2345 17.0245 18.096 16.9255C18.0206 16.8455 18.0206 16.8455 17.9593 16.7656C17.9109 16.6919 17.9109 16.6919 17.8135 16.6568C17.8124 16.6139 17.8112 16.571 17.81 16.5269C17.8056 16.3683 17.8009 16.2097 17.7961 16.0512C17.794 15.9824 17.7921 15.9137 17.7902 15.845C17.7875 15.7464 17.7845 15.6478 17.7815 15.5492C17.7807 15.5183 17.7799 15.4874 17.7791 15.4555C17.7884 15.3116 17.7884 15.3116 17.7198 15.192C17.6261 15.1903 17.5323 15.1902 17.4385 15.192ZM14.2364 15.4169C14.2103 15.4394 14.1842 15.4618 14.1573 15.4849C14.1591 15.5842 14.1591 15.5842 14.2042 15.6942C14.376 15.8252 14.376 15.8252 14.5909 15.8642C14.7082 15.8006 14.7273 15.7247 14.7667 15.6105C14.538 15.3803 14.538 15.3803 14.2364 15.4169ZM20.5087 15.4732C20.4281 15.5269 20.4281 15.5269 20.3858 15.634C20.3827 15.7367 20.3827 15.7367 20.4444 15.8145C20.5311 15.8706 20.5311 15.8706 20.6436 15.859C20.79 15.8123 20.8853 15.7439 21.001 15.6524C20.9868 15.5314 20.9779 15.4635 20.878 15.3777C20.7216 15.352 20.64 15.3986 20.5087 15.4732ZM14.1573 18.7913C14.1337 18.9031 14.1337 18.9031 14.1573 19.0006C14.256 19.0597 14.256 19.0597 14.3917 19.0843C14.5557 19.0356 14.6894 18.9696 14.7696 18.8305C14.7742 18.7356 14.7742 18.7356 14.6729 18.6239C14.4538 18.5859 14.3209 18.6656 14.1573 18.7913ZM20.3917 18.7076C20.3851 18.8111 20.3851 18.8111 20.4385 18.9169C20.5635 19.0215 20.5635 19.0215 20.7198 19.0843C20.8508 19.0792 20.8508 19.0792 20.9542 19.0424C20.9696 18.9596 20.9851 18.8767 21.001 18.7913C20.8131 18.6646 20.8131 18.6646 20.5909 18.6082C20.4762 18.6159 20.4762 18.6159 20.3917 18.7076ZM17.4004 20.2352C17.316 20.3939 17.354 20.5036 17.3917 20.6747C17.4441 20.7309 17.4441 20.7309 17.5792 20.7218C17.7142 20.7309 17.7142 20.7309 17.7667 20.6747C17.7725 20.6059 17.7749 20.537 17.7754 20.468C17.7764 20.4118 17.7764 20.4118 17.7775 20.3544C17.7775 20.2482 17.7775 20.2482 17.6729 20.1724C17.4911 20.1547 17.4911 20.1547 17.4004 20.2352Z" fill="#242424"/>
<path d="M12.2549 6.18261C12.2841 6.19454 12.3134 6.20647 12.3435 6.21875C12.4405 6.25838 12.5374 6.29831 12.6342 6.33825C12.7033 6.36654 12.7724 6.3948 12.8415 6.42304C13.0246 6.49798 13.2076 6.57319 13.3906 6.64845C13.5698 6.72211 13.7491 6.79551 13.9284 6.86893C14.4012 7.06258 14.8737 7.2567 15.3462 7.45083C15.6023 7.55608 15.8585 7.6613 16.1147 7.76648C16.1506 7.78119 16.1864 7.79591 16.2234 7.81108C16.7097 8.01067 17.1965 8.2093 17.6839 8.4069C17.7803 8.44602 17.8767 8.4852 17.9731 8.52439C18.2677 8.64412 18.5627 8.7631 18.8586 8.88031C18.911 8.90128 18.9635 8.92225 19.0175 8.94385C19.1143 8.98252 19.2113 9.02085 19.3085 9.05874C19.3508 9.07571 19.3931 9.09269 19.4366 9.11018C19.4914 9.1318 19.4914 9.1318 19.5474 9.15386C19.66 9.21488 19.7154 9.27173 19.7827 9.37257C19.8066 9.56501 19.8111 9.6597 19.7094 9.83034C19.5565 9.94585 19.4671 9.95155 19.2671 9.95851C19.1198 9.9242 18.9859 9.86906 18.8481 9.81203C18.8061 9.79531 18.7641 9.77859 18.7208 9.76137C18.5742 9.70253 18.4284 9.64236 18.2827 9.58184C18.1998 9.54742 18.1998 9.54742 18.1152 9.51231C17.8679 9.40945 17.6209 9.30605 17.3742 9.20211C16.9277 9.01404 16.4795 8.8297 16.0298 8.648C15.4982 8.43318 14.9677 8.21631 14.4382 7.99759C14.3225 7.94989 14.2067 7.90238 14.0909 7.85492C13.75 7.71508 13.4097 7.57454 13.0721 7.42836C12.9306 7.36727 12.7887 7.30709 12.6468 7.24703C12.5806 7.21874 12.5147 7.19002 12.4491 7.16083C12.3587 7.12064 12.2676 7.08204 12.1761 7.0437C12.1252 7.02154 12.0742 6.99937 12.0217 6.97654C11.7946 6.93218 11.6481 6.99046 11.4389 7.07068C11.4074 7.08254 11.3759 7.09441 11.3434 7.10664C11.2478 7.14396 11.1533 7.18304 11.0588 7.22272C11.0059 7.24462 11.0059 7.24462 10.952 7.26697C10.8369 7.31471 10.7219 7.36272 10.6069 7.41073C10.5254 7.44456 10.4439 7.47837 10.3624 7.51215C10.1944 7.58182 10.0264 7.65156 9.85837 7.72135C9.48344 7.87699 9.10768 8.03101 8.73191 8.185C8.65987 8.21455 8.58783 8.24409 8.5158 8.27363C8.16536 8.41733 7.8148 8.56077 7.46408 8.70391C7.43028 8.71771 7.39648 8.7315 7.36166 8.74572C7.19306 8.81452 7.02442 8.88325 6.85572 8.95187C6.5299 9.08448 6.20454 9.21788 5.88015 9.35325C5.72096 9.41967 5.56162 9.48582 5.40228 9.55197C5.32594 9.58376 5.24966 9.61569 5.17347 9.64777C5.06756 9.69235 4.96141 9.73646 4.8552 9.78047C4.82417 9.79369 4.79314 9.80691 4.76116 9.82053C4.50888 9.92418 4.28604 9.99459 4.01804 9.90881C3.83447 9.79827 3.83447 9.79827 3.79831 9.66554C3.79394 9.54714 3.79693 9.44157 3.84519 9.33072C4.00961 9.19923 4.17657 9.11433 4.37619 9.0317C4.41927 9.01374 4.41927 9.01374 4.46322 8.99541C4.55784 8.95605 4.65268 8.91712 4.74753 8.87819C4.81495 8.85027 4.88236 8.82233 4.94976 8.79437C5.47313 8.57769 5.99833 8.36453 6.52388 8.15209C7.03054 7.94722 7.5357 7.73955 8.0405 7.53105C8.6778 7.26787 9.31586 7.00626 9.95583 6.74828C10.2586 6.62609 10.5603 6.50231 10.8601 6.37455C10.917 6.3505 10.9738 6.32646 11.0306 6.30243C11.1357 6.25786 11.2405 6.21283 11.3451 6.16727C11.3913 6.14773 11.4375 6.12819 11.4851 6.10806C11.5251 6.0908 11.5651 6.07353 11.6062 6.05575C11.8438 5.9903 12.039 6.09405 12.2549 6.18261Z" fill="#242424"/>
<path d="M4.87508 17.5666C4.9087 17.5666 4.94232 17.5665 4.97696 17.5664C5.08989 17.5663 5.20281 17.5668 5.31574 17.5672C5.39657 17.5672 5.47741 17.5672 5.55825 17.5672C5.77799 17.5672 5.99772 17.5676 6.21746 17.5682C6.44699 17.5687 6.67653 17.5688 6.90606 17.5689C7.34084 17.5692 7.77563 17.5698 8.21041 17.5707C8.70534 17.5716 9.20027 17.5721 9.6952 17.5725C10.7134 17.5734 11.7317 17.5749 12.7499 17.5767C12.7963 17.8529 12.8427 18.1292 12.8905 18.4138C11.8067 18.4186 10.7228 18.4223 9.63897 18.4246C9.13573 18.4257 8.6325 18.4272 8.12927 18.4296C7.69069 18.4316 7.25213 18.433 6.81355 18.4335C6.58128 18.4337 6.34902 18.4344 6.11676 18.4359C5.89818 18.4373 5.67963 18.4378 5.46105 18.4374C5.38079 18.4375 5.30054 18.4379 5.22029 18.4387C5.11073 18.4398 5.00126 18.4395 4.8917 18.4389C4.79973 18.4392 4.79973 18.4392 4.7059 18.4395C4.50636 18.4072 4.43842 18.343 4.31238 18.2045C4.24628 18.0865 4.25399 18.0007 4.2655 17.8697C4.40832 17.6025 4.55552 17.5662 4.87508 17.5666Z" fill="#242424"/>
<path d="M6.34158 2.38477C6.62623 2.43154 6.90677 2.49915 7.18636 2.5656C7.28372 2.58862 7.38127 2.61087 7.47885 2.6331C7.54093 2.64772 7.60301 2.66238 7.66507 2.67708C7.7211 2.69019 7.77714 2.70329 7.83487 2.71679C7.96865 2.76111 7.96865 2.76111 8.0624 2.88667C8.07872 3.00321 8.07772 3.0703 8.01553 3.17441C7.79807 3.28362 7.4998 3.16998 7.27432 3.11425C7.23148 3.10297 7.18864 3.0917 7.1445 3.08008C7.02796 3.04888 7.02796 3.04888 6.89053 3.05408C6.98841 3.20755 7.08637 3.36097 7.18439 3.51437C7.23609 3.59533 7.28771 3.67634 7.33932 3.75734C7.48836 3.9909 7.63768 4.22399 7.7947 4.45337C7.81655 4.48545 7.83841 4.51752 7.86092 4.55057C7.90029 4.60794 7.94016 4.66504 7.98062 4.7218C8.09116 4.88332 8.13897 4.99911 8.10928 5.18857C8.01553 5.27228 8.01553 5.27228 7.85709 5.29214C7.6874 5.27228 7.6874 5.27228 7.58703 5.17459C7.55955 5.12957 7.53206 5.08455 7.50375 5.03816C7.48836 5.01376 7.47297 4.98936 7.45711 4.96422C7.4245 4.91235 7.3924 4.86021 7.36079 4.80785C7.29802 4.70451 7.23182 4.60309 7.16563 4.50148C7.08368 4.37527 7.00333 4.24824 6.92276 4.12133C6.87325 4.04353 6.82372 3.96575 6.77416 3.88798C6.72981 3.81836 6.68553 3.74869 6.64127 3.67901C6.5897 3.59878 6.53659 3.51932 6.4818 3.44081C6.42178 3.34705 6.42178 3.34705 6.42178 3.26335C6.39084 3.26335 6.3599 3.26335 6.32803 3.26335C6.32416 3.30737 6.32029 3.35139 6.31631 3.39675C6.28044 3.65159 6.20287 3.90486 6.09365 4.14225C5.95303 4.22596 5.95303 4.22596 5.83291 4.2155C5.71865 4.18411 5.71865 4.18411 5.6249 4.1004C5.60151 3.80592 5.69004 3.53921 5.77482 3.25808C5.8007 3.17175 5.82544 3.08519 5.85012 2.99858C5.86654 2.94322 5.88301 2.88788 5.89956 2.83256C5.91429 2.7827 5.92902 2.73284 5.94419 2.68147C6.02732 2.48807 6.10162 2.38426 6.34158 2.38477Z" fill="#242424"/>
<path d="M3.93827 5.64888C4.03202 5.77444 4.03202 5.77444 4.03495 5.89999C3.98514 6.02555 3.98514 6.02555 3.85916 6.09356C3.79243 6.11447 3.72486 6.13327 3.65702 6.15111C3.60167 6.16584 3.54632 6.18057 3.48929 6.19574C3.32691 6.2382 3.16398 6.2787 3.00077 6.31852C3.02945 6.33342 3.05812 6.34832 3.08767 6.36367C3.62874 6.64489 4.16944 6.92664 4.70877 7.21051C4.77531 7.24544 4.77531 7.24544 4.8432 7.28108C4.88385 7.30252 4.92451 7.32395 4.9664 7.34604C5.0022 7.36488 5.038 7.38373 5.07488 7.40315C5.15702 7.44854 5.15702 7.44854 5.20389 7.4904C5.21561 7.63426 5.21561 7.63426 5.20389 7.78336C5.06327 7.86707 5.06327 7.86707 4.9448 7.86658C4.70379 7.80534 4.5023 7.69455 4.2869 7.58195C4.24007 7.55788 4.19323 7.5338 4.14498 7.509C4.04715 7.4587 3.94943 7.40825 3.85179 7.35764C3.66059 7.25873 3.46862 7.16102 3.27663 7.06334C3.09077 6.96876 2.90514 6.87384 2.71952 6.7789C2.73305 6.82783 2.74659 6.87677 2.76053 6.92718C2.77812 6.99198 2.7957 7.05677 2.81327 7.12157C2.82221 7.15375 2.83115 7.18593 2.84037 7.21909C2.95105 7.63028 2.95105 7.63028 2.85721 7.77813C2.71613 7.85127 2.59415 7.80686 2.43827 7.78336C2.30674 7.42108 2.18216 7.05722 2.06913 6.68996C2.05316 6.64021 2.05316 6.64021 2.03686 6.58945C1.93412 6.24811 1.93412 6.24811 2.01639 6.06741C2.13169 6.00593 2.21752 5.97535 2.34452 5.94185C2.3891 5.92969 2.43369 5.91753 2.47963 5.905C2.6362 5.86386 2.79338 5.82544 2.95096 5.78752C3.03122 5.76741 3.03122 5.76741 3.1131 5.74689C3.39322 5.67913 3.6477 5.61794 3.93827 5.64888Z" fill="#242424"/>
<path d="M17.5157 2.42879C17.6069 2.54842 17.6443 2.6781 17.6858 2.81622C17.6951 2.8461 17.7043 2.87599 17.7139 2.90678C17.7334 2.96993 17.7526 3.03315 17.7716 3.09643C17.8006 3.19279 17.8308 3.28885 17.861 3.38491C17.8798 3.44645 17.8986 3.508 17.9172 3.56957C17.9263 3.59809 17.9353 3.62661 17.9446 3.656C17.9962 3.83157 18.0123 3.96796 17.9531 4.14292C17.8125 4.22662 17.8125 4.22662 17.6953 4.22401C17.5356 4.17054 17.5139 4.11073 17.4375 3.97551C17.4007 3.86714 17.3675 3.76097 17.3379 3.65115C17.3018 3.46351 17.3018 3.46351 17.2031 3.30587C17.1727 3.35353 17.1727 3.35353 17.1417 3.40215C16.4605 4.46977 16.4605 4.46977 16.1777 4.9015C16.1591 4.93014 16.1405 4.95879 16.1213 4.9883C16.0516 5.09418 15.9883 5.1857 15.8906 5.27294C15.7529 5.28864 15.7529 5.28864 15.6094 5.27294C15.5156 5.20755 15.5156 5.20755 15.4688 5.10553C15.5221 4.88051 15.6237 4.70185 15.7588 4.50651C15.8004 4.44486 15.842 4.38317 15.8835 4.32145C15.9181 4.2701 15.9181 4.2701 15.9535 4.21771C16.1092 3.98415 16.2603 3.74814 16.4121 3.51251C16.4441 3.46293 16.4761 3.41335 16.5081 3.36377C16.5836 3.24683 16.659 3.12987 16.7344 3.0129C16.6767 3.02849 16.6191 3.04408 16.5597 3.06014C16.4832 3.08017 16.4066 3.10017 16.3301 3.12014C16.2922 3.13048 16.2543 3.14081 16.2153 3.15145C15.9958 3.20801 15.8363 3.23507 15.6094 3.18031C15.5537 3.06521 15.5537 3.06521 15.5156 2.92919C15.5891 2.79299 15.6516 2.76339 15.8105 2.7082C15.8735 2.69249 15.9367 2.67747 16.0001 2.66303C16.0337 2.65491 16.0673 2.64679 16.1019 2.63842C16.1728 2.62139 16.2438 2.60467 16.3149 2.58822C16.4233 2.5631 16.5314 2.53705 16.6395 2.51083C16.7086 2.49437 16.7777 2.47796 16.8468 2.46162C16.879 2.4539 16.9112 2.44619 16.9443 2.43824C17.3613 2.34254 17.3613 2.34254 17.5157 2.42879Z" fill="#242424"/>
<path d="M19.838 5.63477C20.1283 5.6415 20.4073 5.7182 20.6858 5.78612C20.7826 5.80963 20.8797 5.83222 20.9768 5.85474C21.0387 5.86953 21.1006 5.88438 21.1625 5.89929C21.2462 5.91934 21.2462 5.91934 21.3316 5.9398C21.5337 6.00516 21.5337 6.00516 21.6113 6.11035C21.6463 6.43676 21.4998 6.79734 21.4092 7.10958C21.3884 7.18549 21.3884 7.18549 21.3672 7.26293C21.3462 7.33577 21.3462 7.33577 21.3248 7.41007C21.3123 7.45387 21.2998 7.49767 21.287 7.5428C21.2299 7.67362 21.1726 7.74044 21.0488 7.82631C20.7998 7.81323 20.7998 7.81323 20.7207 7.7426C20.6832 7.40783 20.8044 7.0979 20.9082 6.77999C20.5386 6.95911 20.1707 7.14073 19.8037 7.32408C19.7541 7.34879 19.7044 7.3735 19.6533 7.39895C19.5797 7.43569 19.5797 7.43569 19.5047 7.47318C19.457 7.49702 19.4092 7.52087 19.36 7.54544C19.1889 7.63341 19.0223 7.72729 18.8569 7.82353C18.7339 7.87583 18.6523 7.87984 18.5176 7.86816C18.4297 7.82369 18.4297 7.82369 18.377 7.7426C18.3808 7.60098 18.3808 7.60098 18.4238 7.44964C18.5355 7.36221 18.5355 7.36221 18.6842 7.29073C18.7109 7.27751 18.7376 7.26428 18.7651 7.25066C18.852 7.2079 18.9396 7.16661 19.0273 7.12528C19.0871 7.09615 19.1469 7.06691 19.2066 7.03757C19.3261 6.97887 19.446 6.92066 19.5661 6.8628C19.8015 6.74893 20.0326 6.62868 20.2637 6.50795C20.3352 6.47087 20.4067 6.43381 20.4783 6.39678C20.5273 6.37131 20.5764 6.34585 20.627 6.31961C20.599 6.31244 20.5711 6.30528 20.5424 6.29789C20.4162 6.2653 20.2901 6.2323 20.1641 6.19929C20.1201 6.18801 20.0762 6.17673 20.0309 6.16512C19.9889 6.15406 19.947 6.143 19.9037 6.1316C19.8649 6.12152 19.8261 6.11144 19.7862 6.10105C19.6895 6.0685 19.6895 6.0685 19.5957 5.98479C19.584 5.85923 19.584 5.85923 19.5957 5.73368C19.6895 5.64997 19.6895 5.64997 19.838 5.63477Z" fill="#242424"/>
<path d="M11.7892 1.05859C12.0003 1.09455 12.1081 1.18259 12.2527 1.31588C12.2793 1.33944 12.3058 1.363 12.3332 1.38727C12.389 1.43709 12.4445 1.48727 12.4995 1.53779C12.5837 1.61491 12.6695 1.69046 12.7556 1.76596C12.8097 1.81465 12.8638 1.86342 12.9177 1.91228C12.9433 1.93479 12.969 1.95729 12.9954 1.98048C13.1138 2.09094 13.1701 2.15842 13.1946 2.31158C13.1728 2.42596 13.1728 2.42596 13.079 2.50966C12.9309 2.53321 12.9309 2.53321 12.7509 2.50966C12.6175 2.42609 12.5118 2.32391 12.4023 2.2167C12.3724 2.18875 12.3426 2.1608 12.3119 2.13201C12.2387 2.0632 12.1663 1.9938 12.0946 1.92373C12.0944 1.95229 12.0941 1.98085 12.0938 2.01027C12.0908 2.30696 12.0869 2.60363 12.0823 2.90031C12.0808 3.01109 12.0795 3.12188 12.0784 3.23268C12.0768 3.39174 12.0744 3.55077 12.0718 3.70982C12.0713 3.78438 12.0713 3.78438 12.0708 3.86044C12.0699 3.90651 12.069 3.95259 12.068 4.00006C12.0675 4.04068 12.067 4.08129 12.0665 4.12314C12.0478 4.22562 12.0478 4.22562 11.9852 4.30283C11.9071 4.35118 11.9071 4.35118 11.7636 4.34595C11.6259 4.30933 11.6259 4.30933 11.5321 4.18377C11.5191 4.08287 11.5191 4.08287 11.5172 3.96205C11.5163 3.91681 11.5153 3.87158 11.5144 3.82497C11.5138 3.77618 11.5133 3.72739 11.5127 3.67712C11.5118 3.62714 11.5109 3.57715 11.51 3.52565C11.5072 3.36574 11.505 3.20582 11.5028 3.0459C11.5011 2.93759 11.4992 2.82928 11.4974 2.72097C11.4928 2.45523 11.4889 2.18948 11.4853 1.92373C11.4669 1.94148 11.4485 1.95923 11.4295 1.97751C11.3453 2.0579 11.2601 2.13729 11.1747 2.2167C11.1458 2.24464 11.1168 2.27259 11.087 2.30138C10.8664 2.50459 10.8664 2.50459 10.6725 2.53092C10.5478 2.50966 10.5478 2.50966 10.4569 2.46258C10.3792 2.34014 10.4128 2.26666 10.454 2.13299C10.5345 2.03987 10.6108 1.96168 10.7034 1.87958C10.7286 1.85672 10.7537 1.83385 10.7797 1.81029C10.8329 1.76226 10.8864 1.71451 10.9402 1.66701C11.0221 1.59434 11.1025 1.52044 11.1828 1.44634C11.2348 1.39972 11.2869 1.35318 11.3392 1.30673C11.3629 1.28463 11.3867 1.26253 11.4112 1.23976C11.5352 1.13259 11.6188 1.08789 11.7892 1.05859Z" fill="#242424"/>
</g>
<defs>
<clipPath id="clip0_1526_63879">
<rect width="24" height="21.4286" fill="white" transform="translate(0 0.417969)"/>
</clipPath>
</defs>
</svg>