<svg xmlns="http://www.w3.org/2000/svg" width="24" height="25" viewBox="0 0 24 25" fill="none">
<g clip-path="url(#clip0_1526_63931)">
<path d="M2.9082 6.46094C3.58883 6.46094 4.26945 6.46094 4.9707 6.46094C4.99391 6.66977 4.99391 6.66977 5.01758 6.88281C5.07637 7.01021 5.07637 7.01021 5.20508 7.07031C5.36306 7.09697 5.51831 7.09658 5.67822 7.09521C5.74739 7.09548 5.74739 7.09548 5.81795 7.09576C5.91535 7.09589 6.01275 7.09554 6.11015 7.09476C6.25924 7.09375 6.40822 7.09475 6.55731 7.09595C6.65198 7.09582 6.74664 7.09558 6.84131 7.09521C6.90818 7.09578 6.90818 7.09578 6.97641 7.09636C7.15519 7.09383 7.27809 7.09113 7.43484 7.00137C7.53429 6.84381 7.53429 6.84381 7.54883 6.46094C8.22945 6.46094 8.91008 6.46094 9.61133 6.46094C9.61133 10.1116 9.61133 13.7622 9.61133 17.5234C7.3993 17.5234 5.18727 17.5234 2.9082 17.5234C2.9082 13.8728 2.9082 10.2222 2.9082 6.46094ZM5.23304 8.7448C5.19499 8.78432 5.15694 8.82384 5.11774 8.86456C5.05542 8.92824 5.05542 8.92824 4.99185 8.99319C4.94865 9.03874 4.90547 9.08431 4.8623 9.12988C4.81827 9.17533 4.77418 9.22071 4.73001 9.26602C4.62209 9.37727 4.51487 9.48911 4.4082 9.60156C4.26872 9.53539 4.18364 9.47576 4.08301 9.3584C4.01404 9.28278 4.01404 9.28278 3.93945 9.22656C3.81633 9.2293 3.74675 9.23177 3.6582 9.32031C3.63162 9.42695 3.63162 9.42695 3.6582 9.55469C3.74542 9.66274 3.82795 9.75298 3.92773 9.84766C3.95299 9.87303 3.97825 9.89841 4.00427 9.92456C4.17937 10.0992 4.17937 10.0992 4.4082 10.1641C4.49772 10.1127 4.49772 10.1127 4.57941 10.0295C4.61197 9.99903 4.64453 9.96859 4.67808 9.93722C4.71277 9.9038 4.74746 9.87037 4.7832 9.83594C4.83769 9.78553 4.83769 9.78553 4.89327 9.73411C5.00746 9.62789 5.11955 9.51977 5.23145 9.41113C5.27039 9.37473 5.30933 9.33832 5.34946 9.30081C5.38598 9.26513 5.42251 9.22945 5.46014 9.19269C5.50995 9.14501 5.50995 9.14501 5.56077 9.09636C5.64243 8.99106 5.64243 8.99106 5.61394 8.83903C5.60277 8.79676 5.59159 8.75449 5.58008 8.71094C5.42277 8.65597 5.37186 8.64532 5.23304 8.7448ZM6.00195 8.99219C5.9201 9.23776 5.89922 9.54764 5.99207 9.79309C6.07647 9.92517 6.13331 9.97347 6.2832 10.0234C6.35745 10.0284 6.43188 10.0309 6.50629 10.0317C6.57412 10.0326 6.57412 10.0326 6.64332 10.0336C6.6921 10.0339 6.74088 10.0342 6.79114 10.0346C6.86648 10.0352 6.86648 10.0352 6.94334 10.0358C7.04965 10.0364 7.15596 10.0369 7.26227 10.0373C7.42482 10.0381 7.58733 10.0401 7.74988 10.0422C7.85315 10.0427 7.95642 10.0431 8.05969 10.0434C8.13258 10.0446 8.13258 10.0446 8.20694 10.0459C8.48077 10.0455 8.48077 10.0455 8.72686 9.9343C8.87799 9.76459 8.87432 9.61791 8.87891 9.39941C8.8812 9.33772 8.8835 9.27603 8.88586 9.21246C8.8741 9.03814 8.8741 9.03814 8.77621 8.91288C8.55439 8.75209 8.3569 8.7719 8.08936 8.77521C8.03718 8.77509 7.98501 8.77498 7.93125 8.77486C7.82108 8.77491 7.71092 8.77554 7.60076 8.77671C7.43223 8.77831 7.26381 8.77767 7.09528 8.77676C6.98816 8.77709 6.88104 8.77754 6.77393 8.77814C6.72358 8.7779 6.67323 8.77767 6.62136 8.77743C6.27162 8.78136 6.27162 8.78136 6.00195 8.99219ZM5.24368 11.3282C5.20514 11.3675 5.1666 11.4068 5.12689 11.4473C5.08505 11.4896 5.0432 11.5319 5.00009 11.5754C4.95611 11.6206 4.91213 11.6658 4.86816 11.7109C4.82367 11.7561 4.77915 11.8013 4.73459 11.8464C4.62547 11.9572 4.5167 12.0683 4.4082 12.1797C4.26872 12.1135 4.18364 12.0539 4.08301 11.9365C4.01404 11.8609 4.01404 11.8609 3.93945 11.8047C3.81633 11.8074 3.74675 11.8099 3.6582 11.8984C3.62984 12.0038 3.62984 12.0038 3.6582 12.1328C3.74201 12.2534 3.84334 12.3528 3.94824 12.4551C3.97534 12.4835 4.00244 12.5119 4.03036 12.5411C4.0571 12.5677 4.08384 12.5943 4.11139 12.6217C4.13569 12.646 4.15999 12.6703 4.18503 12.6953C4.2677 12.7514 4.2677 12.7514 4.37761 12.7414C4.54358 12.6799 4.64997 12.5759 4.77258 12.4529C4.79733 12.4285 4.82208 12.4042 4.84758 12.3791C4.89958 12.3276 4.95134 12.2759 5.00286 12.224C5.08195 12.1446 5.1622 12.0666 5.24261 11.9885C5.29304 11.9383 5.3434 11.888 5.39368 11.8376C5.41779 11.8144 5.44191 11.7911 5.46675 11.7672C5.54202 11.6931 5.54202 11.6931 5.62695 11.5703C5.62314 11.4076 5.60162 11.3575 5.48633 11.2422C5.34137 11.2271 5.34137 11.2271 5.24368 11.3282ZM6.04883 11.5234C5.94281 11.6724 5.94111 11.8095 5.94043 11.9893C5.93964 12.0371 5.93886 12.0848 5.93805 12.1341C5.95756 12.2937 6.00032 12.3794 6.0957 12.5078C6.24767 12.6091 6.29219 12.6138 6.46803 12.6159C6.51512 12.6167 6.56222 12.6174 6.61074 12.6182C6.66157 12.6184 6.7124 12.6187 6.76477 12.619C6.84323 12.6196 6.84323 12.6196 6.92328 12.6202C7.034 12.6209 7.14472 12.6213 7.25545 12.6215C7.42481 12.6221 7.59409 12.6244 7.76343 12.6267C7.87097 12.6272 7.97852 12.6275 8.08606 12.6277C8.1367 12.6287 8.18734 12.6296 8.23952 12.6305C8.52767 12.6297 8.52767 12.6297 8.7761 12.4933C8.88878 12.3266 8.89109 12.2156 8.8877 12.0156C8.88776 11.9552 8.88782 11.8948 8.88788 11.8325C8.85792 11.6424 8.80832 11.5644 8.67383 11.4297C8.56086 11.3732 8.4885 11.3763 8.36231 11.3753C8.31709 11.3748 8.27187 11.3744 8.22527 11.3739C8.17625 11.3737 8.12723 11.3735 8.07672 11.3733C8.02643 11.373 7.97614 11.3728 7.92432 11.3725C7.81773 11.372 7.71114 11.3717 7.60455 11.3716C7.44159 11.3711 7.27865 11.3696 7.11569 11.3682C7.01221 11.3679 6.90872 11.3676 6.80524 11.3674C6.73213 11.3666 6.73213 11.3666 6.65755 11.3657C6.32935 11.3641 6.32935 11.3641 6.04883 11.5234ZM5.39258 13.8203C5.04293 14.1108 4.72707 14.4346 4.4082 14.7578C4.26794 14.6939 4.16022 14.6196 4.04492 14.5176C4.01616 14.4923 3.9874 14.4671 3.95776 14.441C3.93625 14.4218 3.91474 14.4026 3.89258 14.3828C3.81523 14.4137 3.73789 14.4447 3.6582 14.4766C3.63368 14.58 3.63368 14.58 3.6582 14.7109C3.74167 14.8318 3.84336 14.9309 3.94824 15.0332C3.97534 15.0616 4.00244 15.09 4.03036 15.1193C4.0571 15.1458 4.08384 15.1724 4.11139 15.1998C4.13569 15.2241 4.15999 15.2484 4.18503 15.2734C4.2677 15.3295 4.2677 15.3295 4.37761 15.3196C4.54358 15.258 4.64997 15.1541 4.77258 15.031C4.79733 15.0067 4.82208 14.9823 4.84758 14.9572C4.89958 14.9058 4.95134 14.8541 5.00286 14.8021C5.08195 14.7227 5.1622 14.6447 5.24261 14.5666C5.29304 14.5164 5.3434 14.4661 5.39368 14.4158C5.41779 14.3925 5.44191 14.3693 5.46675 14.3453C5.54202 14.2712 5.54202 14.2712 5.62695 14.1484C5.63216 14.0195 5.63216 14.0195 5.58008 13.9141C5.48785 13.8503 5.48785 13.8503 5.39258 13.8203ZM6.04883 14.1016C5.93925 14.2541 5.93822 14.4035 5.93457 14.5879C5.9327 14.6395 5.93082 14.6911 5.92889 14.7443C5.95584 14.9029 5.9979 14.999 6.10443 15.1201C6.28834 15.249 6.52127 15.2184 6.7373 15.2154C6.79052 15.2156 6.84374 15.2157 6.89856 15.2159C7.01094 15.2159 7.12331 15.2151 7.23567 15.2138C7.40762 15.2119 7.57939 15.2128 7.75134 15.214C7.8606 15.2137 7.96985 15.2132 8.0791 15.2125C8.13047 15.2128 8.18185 15.2131 8.23478 15.2135C8.52571 15.2088 8.52571 15.2088 8.77654 15.071C8.88884 14.9045 8.89109 14.7933 8.8877 14.5937C8.88776 14.5333 8.88782 14.4729 8.88788 14.4106C8.85781 14.2198 8.81107 14.1413 8.67383 14.0078C8.53965 13.9631 8.45381 13.9545 8.31441 13.9534C8.27014 13.9529 8.22586 13.9525 8.18023 13.952C8.13248 13.9518 8.08472 13.9516 8.03552 13.9514C7.98634 13.9511 7.93715 13.9509 7.88647 13.9506C7.78237 13.9502 7.67827 13.9499 7.57417 13.9497C7.41501 13.9492 7.25589 13.9478 7.09674 13.9463C6.99561 13.946 6.89447 13.9457 6.79333 13.9456C6.74577 13.945 6.6982 13.9444 6.6492 13.9438C6.32563 13.9435 6.32563 13.9435 6.04883 14.1016Z" fill="#242424"/>
<path d="M2.43714 5.27818C2.52158 5.2782 2.52158 5.2782 2.60772 5.27821C2.69855 5.27893 2.69855 5.27893 2.79122 5.27967C2.854 5.27985 2.91679 5.27998 2.97958 5.28007C3.1445 5.28043 3.3094 5.28135 3.47431 5.28239C3.64273 5.28335 3.81115 5.28378 3.97957 5.28425C4.30977 5.28525 4.63997 5.2869 4.97017 5.28883C4.97017 5.53633 4.97017 5.78383 4.97017 6.03883C3.78681 6.06203 3.78681 6.06203 2.57955 6.0857C2.52579 6.1932 2.5268 6.25278 2.52677 6.37228C2.52665 6.4129 2.52653 6.45352 2.5264 6.49538C2.52651 6.54027 2.52661 6.58517 2.52672 6.63143C2.52665 6.67891 2.52657 6.7264 2.5265 6.77532C2.52631 6.93546 2.52646 7.0956 2.52661 7.25575C2.52654 7.37014 2.52646 7.48453 2.52636 7.59892C2.52616 7.87799 2.52619 8.15706 2.52633 8.43612C2.52643 8.66285 2.52645 8.88958 2.5264 9.11631C2.52639 9.14854 2.52638 9.18076 2.52638 9.21396C2.52636 9.27941 2.52635 9.34487 2.52633 9.41032C2.5262 10.0246 2.52635 10.6389 2.5266 11.2532C2.52681 11.7807 2.52678 12.3083 2.52656 12.8358C2.52631 13.4478 2.52621 14.0599 2.52635 14.6719C2.52637 14.7372 2.52638 14.8024 2.5264 14.8676C2.52641 14.8997 2.52641 14.9318 2.52642 14.9648C2.52646 15.1914 2.52639 15.4179 2.52628 15.6445C2.52614 15.9492 2.52624 16.2539 2.52651 16.5586C2.52657 16.6708 2.52656 16.7829 2.52645 16.895C2.52633 17.0475 2.52648 17.2 2.52672 17.3525C2.52661 17.3974 2.52651 17.4423 2.5264 17.4885C2.52652 17.5291 2.52665 17.5698 2.52677 17.6116C2.52678 17.6645 2.52678 17.6645 2.5268 17.7184C2.52743 17.809 2.52743 17.809 2.57955 17.8982C2.73253 17.9492 2.84384 17.951 3.00485 17.951C3.06439 17.9512 3.12394 17.9513 3.18529 17.9514C3.25141 17.9513 3.31753 17.9512 3.38365 17.9511C3.45318 17.9512 3.52271 17.9513 3.59223 17.9514C3.78118 17.9516 3.97013 17.9515 4.15908 17.9514C4.35664 17.9513 4.5542 17.9514 4.75177 17.9514C5.08356 17.9515 5.41536 17.9514 5.74716 17.9512C6.13098 17.9509 6.51481 17.951 6.89863 17.9513C7.22793 17.9515 7.55723 17.9515 7.88654 17.9514C8.08332 17.9513 8.2801 17.9513 8.47689 17.9515C8.66187 17.9516 8.84686 17.9515 9.03184 17.9512C9.09981 17.9512 9.16778 17.9512 9.23575 17.9513C9.32838 17.9514 9.421 17.9512 9.51362 17.951C9.5655 17.951 9.61739 17.951 9.67084 17.951C9.8028 17.9507 9.8028 17.9507 9.93892 17.8982C9.99267 17.7907 9.99167 17.7311 9.9917 17.6116C9.99182 17.571 9.99194 17.5304 9.99207 17.4885C9.99196 17.4436 9.99186 17.3987 9.99175 17.3525C9.99182 17.305 9.99189 17.2575 9.99197 17.2086C9.99216 17.0484 9.99201 16.8883 9.99186 16.7282C9.99193 16.6138 9.99201 16.4994 9.99211 16.385C9.9923 16.1059 9.99227 15.8268 9.99214 15.5478C9.99203 15.3211 9.99202 15.0943 9.99207 14.8676C9.99208 14.8193 9.99208 14.8193 9.99209 14.7699C9.99211 14.7045 9.99212 14.639 9.99214 14.5736C9.99227 13.9593 9.99212 13.345 9.99186 12.7307C9.99166 12.2032 9.99169 11.6756 9.99191 11.1481C9.99216 10.5361 9.99226 9.92402 9.99211 9.31197C9.9921 9.24675 9.99208 9.18153 9.99207 9.11631C9.99206 9.08422 9.99205 9.05213 9.99205 9.01906C9.99201 8.79251 9.99207 8.56596 9.99218 8.3394C9.99233 8.03469 9.99223 7.72997 9.99196 7.42526C9.99189 7.31312 9.99191 7.20099 9.99201 7.08886C9.99214 6.93638 9.99198 6.7839 9.99175 6.63143C9.99185 6.58653 9.99196 6.54163 9.99207 6.49538C9.99194 6.45476 9.99182 6.41413 9.9917 6.37228C9.99169 6.33705 9.99168 6.30182 9.99167 6.26553C9.99104 6.17489 9.99104 6.17489 9.93892 6.0857C9.15001 6.07023 8.36111 6.05476 7.5483 6.03883C7.5483 5.79133 7.5483 5.54383 7.5483 5.28883C7.91014 5.28458 8.27198 5.28115 8.63384 5.27911C8.80189 5.27814 8.96991 5.27681 9.13795 5.27468C9.30025 5.27264 9.46254 5.27152 9.62485 5.27104C9.71661 5.27053 9.80837 5.26906 9.90012 5.26758C10.423 5.26745 10.423 5.26745 10.642 5.47633C10.7415 5.62546 10.7476 5.66183 10.748 5.83259C10.7483 5.87711 10.7486 5.92163 10.749 5.9675C10.7489 6.01651 10.7488 6.06552 10.7486 6.11601C10.7489 6.168 10.7491 6.21998 10.7494 6.27355C10.7501 6.44865 10.7501 6.62376 10.7502 6.79886C10.7505 6.92404 10.7509 7.04922 10.7513 7.1744C10.7524 7.51511 10.7528 7.85583 10.753 8.19654C10.7532 8.40925 10.7535 8.62196 10.7538 8.83466C10.7547 9.42348 10.7555 10.0123 10.7556 10.6011C10.7556 10.6388 10.7557 10.6765 10.7557 10.7153C10.7557 10.7917 10.7557 10.8681 10.7557 10.9446C10.7557 10.9825 10.7557 11.0204 10.7557 11.0595C10.7558 11.1165 10.7558 11.1165 10.7558 11.1746C10.7559 11.79 10.7572 12.4054 10.759 13.0209C10.7607 13.6526 10.7616 14.2843 10.7617 14.916C10.7617 15.2708 10.7621 15.6255 10.7634 15.9803C10.7646 16.2823 10.7649 16.5844 10.7642 16.8864C10.7639 17.0406 10.7641 17.1947 10.765 17.3488C10.766 17.5159 10.7655 17.6829 10.7646 17.85C10.7652 17.8987 10.7658 17.9474 10.7665 17.9976C10.764 18.2104 10.7606 18.3658 10.6256 18.537C10.4322 18.7102 10.2856 18.7011 10.034 18.7017C9.98386 18.7019 9.98386 18.7019 9.93267 18.7021C9.82029 18.7025 9.70791 18.7026 9.59553 18.7026C9.51507 18.7028 9.43461 18.7031 9.35416 18.7033C9.13537 18.7039 8.91659 18.7043 8.69781 18.7045C8.56117 18.7046 8.42454 18.7048 8.2879 18.705C7.86054 18.7056 7.43319 18.7061 7.00583 18.7063C6.51223 18.7065 6.01863 18.7073 5.52503 18.7087C5.14366 18.7097 4.76229 18.7102 4.38091 18.7102C4.15305 18.7103 3.9252 18.7105 3.69734 18.7114C3.48303 18.7121 3.26874 18.7123 3.05443 18.7118C2.97577 18.7118 2.8971 18.712 2.81844 18.7125C2.71106 18.7131 2.60371 18.7128 2.49633 18.7123C2.40619 18.7124 2.40619 18.7124 2.31423 18.7125C2.10525 18.6892 1.98695 18.6258 1.84755 18.4695C1.77187 18.3499 1.76502 18.2858 1.76484 18.1454C1.76445 18.1008 1.76405 18.0561 1.76364 18.0101C1.76393 17.9612 1.76421 17.9123 1.7645 17.8619C1.76425 17.8099 1.76399 17.7578 1.76373 17.7042C1.76306 17.5291 1.7634 17.3541 1.76373 17.179C1.76346 17.0537 1.76314 16.9285 1.76276 16.8032C1.76195 16.4979 1.76191 16.1926 1.76216 15.8873C1.76235 15.6392 1.76228 15.3911 1.76203 15.143C1.76199 15.1077 1.76196 15.0724 1.76192 15.036C1.76185 14.9643 1.76178 14.8926 1.76171 14.8209C1.76106 14.1484 1.76132 13.4758 1.76185 12.8033C1.76232 12.1878 1.76171 11.5723 1.76059 10.9569C1.75945 10.3251 1.759 9.69332 1.75931 9.06155C1.75947 8.70678 1.75937 8.35202 1.75855 7.99725C1.75786 7.69524 1.75783 7.39324 1.75865 7.09123C1.75905 6.93712 1.75904 6.78302 1.75843 6.6289C1.75781 6.46189 1.75835 6.29492 1.75918 6.12791C1.75873 6.07912 1.75828 6.03032 1.75781 5.98004C1.75995 5.77188 1.76122 5.6517 1.87239 5.47163C2.05859 5.30205 2.18636 5.27713 2.43714 5.27818Z" fill="#242424"/>
<path d="M12.0017 0.630903C12.0375 0.630928 12.0734 0.630954 12.1103 0.63098C13.7819 0.636422 15.3499 1.17927 16.6709 2.2025C16.7528 2.26578 16.8375 2.32545 16.9236 2.38286C16.916 2.33439 16.9085 2.28593 16.9007 2.23601C16.8643 1.94403 16.8681 1.65126 16.8679 1.35747C16.8673 1.29958 16.8668 1.24169 16.8662 1.18205C16.8661 1.12694 16.866 1.07184 16.8659 1.01506C16.8657 0.964913 16.8655 0.914768 16.8653 0.863103C16.8767 0.742231 16.8767 0.742231 16.9705 0.648481C17.1082 0.627973 17.1082 0.627973 17.2517 0.648481C17.4403 0.860744 17.4186 1.11806 17.4246 1.38676C17.4261 1.43559 17.4276 1.48442 17.4291 1.53473C17.4335 1.69244 17.4365 1.85012 17.4392 2.00786C17.4402 2.06256 17.4413 2.11725 17.4423 2.17361C17.445 2.33516 17.4467 2.49668 17.448 2.65825C17.4486 2.70893 17.4492 2.75961 17.4499 2.81183C17.4499 2.85867 17.45 2.90551 17.45 2.95378C17.4502 2.99522 17.4504 3.03667 17.4506 3.07937C17.4392 3.17973 17.4392 3.17973 17.3455 3.27348C17.0934 3.3336 16.8329 3.33618 16.575 3.34672C16.5283 3.34864 16.4816 3.35057 16.4336 3.35255C16.0843 3.36576 15.735 3.37355 15.3855 3.37602C15.3391 3.37663 15.2927 3.37724 15.2449 3.37786C15.202 3.37792 15.1592 3.37798 15.1151 3.37803C15.0772 3.37823 15.0394 3.37842 15.0005 3.37862C14.908 3.36723 14.908 3.36723 14.8142 3.27348C14.7966 3.13579 14.7966 3.13579 14.8142 2.99223C14.9483 2.86254 15.0469 2.83359 15.2308 2.82927C15.2748 2.82782 15.3188 2.82637 15.3642 2.82487C15.4099 2.82403 15.4556 2.82318 15.5027 2.82231C15.5927 2.81988 15.6827 2.81732 15.7728 2.81462C15.8162 2.81333 15.8597 2.81205 15.9045 2.81073C16.0894 2.8021 16.2712 2.78092 16.4548 2.75786C16.0812 2.42819 15.6754 2.19008 15.2361 1.96098C15.2073 1.9458 15.1784 1.93062 15.1487 1.91498C14.6526 1.6574 14.1355 1.4918 13.5955 1.35161C13.5642 1.34313 13.533 1.33466 13.5009 1.32593C12.5564 1.07869 11.3499 1.1116 10.408 1.35161C10.3724 1.36017 10.3368 1.36874 10.3002 1.37756C9.12739 1.66683 8.06016 2.23959 7.19025 3.07591C7.05668 3.2015 6.98117 3.27006 6.79565 3.2852C6.65796 3.27348 6.65796 3.27348 6.56421 3.17973C6.5437 3.04789 6.5437 3.04789 6.56421 2.89848C6.63926 2.8174 6.71788 2.73956 6.79858 2.66411C6.83357 2.62924 6.86856 2.59438 6.9046 2.55845C7.48781 2.00342 8.17581 1.58645 8.90796 1.25786C8.99216 1.2197 8.99216 1.2197 9.07806 1.18077C9.40713 1.04055 9.73658 0.935823 10.0828 0.847699C10.1192 0.838383 10.1557 0.829066 10.1933 0.819467C10.7935 0.674878 11.387 0.629246 12.0017 0.630903Z" fill="#242424"/>
<path d="M8.61783 20.8893C8.66423 20.8887 8.71064 20.8881 8.75845 20.8875C8.80129 20.8874 8.84414 20.8874 8.88828 20.8873C8.92609 20.8871 8.96391 20.8869 9.00287 20.8867C9.09537 20.8981 9.09537 20.8981 9.18912 20.9919C9.2067 21.1296 9.2067 21.1296 9.18912 21.2731C9.05194 21.407 8.94921 21.4319 8.76065 21.4361C8.71431 21.4375 8.66796 21.439 8.62021 21.4405C8.54797 21.4417 8.54797 21.4417 8.47428 21.443C8.3793 21.4454 8.28433 21.448 8.18937 21.4507C8.1442 21.452 8.09903 21.4533 8.05249 21.4546C7.88246 21.4625 7.71687 21.4829 7.5485 21.5075C7.92218 21.8371 8.32794 22.0753 8.76725 22.3044C8.79608 22.3195 8.82491 22.3347 8.85461 22.3504C9.35029 22.6077 9.86739 22.7764 10.4079 22.9137C10.4409 22.9222 10.4738 22.9307 10.5078 22.9394C11.4663 23.1725 12.641 23.1551 13.5954 22.9137C13.631 22.9052 13.6667 22.8966 13.7034 22.8878C14.6084 22.6645 15.4839 22.2696 16.2204 21.695C16.2835 21.6465 16.2835 21.6465 16.3478 21.597C16.536 21.4493 16.7142 21.2964 16.8883 21.1325C17.0131 21.0216 17.0521 20.9939 17.2223 20.9655C17.3454 20.9919 17.3454 20.9919 17.4391 21.0856C17.4653 21.2642 17.4577 21.3411 17.351 21.489C16.7858 22.0328 16.1666 22.4599 15.4704 22.82C15.4416 22.835 15.4129 22.8499 15.3833 22.8654C13.8099 23.6738 11.8374 23.8789 10.1266 23.4294C10.0928 23.4206 10.059 23.4118 10.0242 23.4028C8.91937 23.1059 7.98718 22.5664 7.07975 21.8825C7.0873 21.9309 7.09485 21.9794 7.10263 22.0293C7.13899 22.3213 7.13525 22.6141 7.13541 22.9079C7.13598 22.9658 7.13656 23.0236 7.13715 23.0833C7.13729 23.1659 7.13729 23.1659 7.13742 23.2503C7.13762 23.3004 7.13781 23.3506 7.13801 23.4022C7.12662 23.5231 7.12662 23.5231 7.03287 23.6169C6.89518 23.6374 6.89518 23.6374 6.75162 23.6169C6.57561 23.4112 6.58515 23.1889 6.57877 22.9313C6.57727 22.8871 6.57577 22.8429 6.57423 22.7974C6.56975 22.6487 6.56672 22.5 6.56412 22.3512C6.56309 22.295 6.56207 22.2387 6.56101 22.1807C6.55829 22.0071 6.55657 21.8335 6.55533 21.6598C6.55472 21.6043 6.5541 21.5488 6.55347 21.4916C6.55342 21.4401 6.55337 21.3885 6.55332 21.3354C6.55313 21.2894 6.55293 21.2434 6.55273 21.1961C6.56412 21.0856 6.56412 21.0856 6.65787 20.9919C6.9099 20.9317 7.17044 20.9292 7.42838 20.9186C7.47504 20.9167 7.5217 20.9148 7.56977 20.9128C7.91908 20.8996 8.26829 20.8918 8.61783 20.8893Z" fill="#242424"/>
<path d="M19.4249 13.5396C19.4745 13.5611 19.4745 13.5611 19.525 13.5829C19.632 13.6293 19.7389 13.6761 19.8457 13.7229C19.9563 13.7709 20.067 13.8189 20.1776 13.8668C20.2516 13.8988 20.3256 13.9309 20.3996 13.9629C20.7264 14.1047 21.0547 14.2427 21.3838 14.3792C21.4547 14.4086 21.4547 14.4086 21.527 14.4386C21.6325 14.4823 21.7381 14.526 21.8438 14.5696C21.8438 14.6005 21.8438 14.6315 21.8438 14.6633C21.4871 14.823 21.1294 14.9801 20.771 15.1359C20.7026 15.1656 20.6343 15.1954 20.566 15.2252C20.3405 15.3236 20.1146 15.421 19.8883 15.5174C19.8133 15.5495 19.7384 15.5818 19.6636 15.6145C19.5575 15.6607 19.451 15.706 19.3444 15.751C19.3129 15.765 19.2814 15.779 19.2489 15.7934C18.9525 15.9161 18.7393 15.8724 18.4509 15.7576C18.3743 15.7247 18.2978 15.6913 18.2216 15.6576C18.1802 15.6397 18.1389 15.6218 18.0963 15.6034C17.9644 15.5463 17.8328 15.4886 17.7012 15.4309C17.5716 15.3745 17.442 15.3182 17.3124 15.262C17.2275 15.2251 17.1426 15.1882 17.0578 15.1513C16.6709 14.9832 16.2814 14.8221 15.8906 14.6633C15.9943 14.5478 16.0876 14.489 16.2304 14.4295C16.2705 14.4125 16.3106 14.3956 16.352 14.3782C16.3953 14.3603 16.4387 14.3425 16.4833 14.324C16.5284 14.3051 16.5735 14.2862 16.6199 14.2668C16.7644 14.2062 16.909 14.1462 17.0537 14.0862C17.1961 14.0267 17.3385 13.9671 17.4809 13.9075C17.5732 13.869 17.6656 13.8306 17.758 13.7923C17.955 13.7106 18.1512 13.6283 18.345 13.5394C18.375 13.5258 18.4049 13.5122 18.4358 13.4982C18.5121 13.4633 18.5881 13.4276 18.6641 13.3918C18.9396 13.3068 19.1731 13.4282 19.4249 13.5396Z" fill="#242424"/>
<path d="M19.2656 5.38319C19.3205 5.40503 19.3205 5.40503 19.3765 5.4273C19.4942 5.47473 19.6111 5.52378 19.728 5.57325C19.7708 5.59122 19.8136 5.6092 19.8577 5.62771C19.9934 5.68473 20.129 5.74196 20.2646 5.7992C20.3551 5.83724 20.4455 5.87527 20.5359 5.91328C20.7082 5.98571 20.8804 6.0582 21.0527 6.13076C21.3161 6.24167 21.5798 6.35177 21.8438 6.46131C21.8438 6.49225 21.8438 6.52319 21.8438 6.55506C21.4871 6.71474 21.1294 6.87186 20.771 7.02759C20.7026 7.05731 20.6343 7.08708 20.566 7.1169C20.3405 7.21528 20.1146 7.31273 19.8883 7.40912C19.8133 7.44121 19.7384 7.47357 19.6636 7.5062C19.5575 7.55246 19.451 7.59769 19.3444 7.64271C19.3129 7.6567 19.2814 7.67068 19.2489 7.68509C18.9576 7.80576 18.7455 7.76595 18.461 7.65442C18.389 7.62375 18.3171 7.59267 18.2454 7.56123C18.1868 7.53613 18.1868 7.53613 18.1271 7.51052C18.0025 7.45705 17.8782 7.40305 17.7539 7.34901C17.6726 7.31397 17.5913 7.27896 17.51 7.244C17.3887 7.1918 17.2673 7.13957 17.1461 7.08717C16.7288 6.9069 16.3099 6.73072 15.8906 6.55506C15.9942 6.43978 16.0872 6.3808 16.2297 6.32118C16.2696 6.30427 16.3096 6.28735 16.3508 6.26993C16.394 6.25206 16.4372 6.23418 16.4817 6.21577C16.5266 6.19687 16.5716 6.17796 16.6179 6.15849C16.7621 6.09797 16.9064 6.03794 17.0508 5.97791C17.1458 5.93806 17.2409 5.89817 17.3359 5.85825C17.5199 5.78101 17.7042 5.70463 17.8888 5.6288C18.0443 5.56472 18.1981 5.49834 18.3507 5.4278C18.3821 5.4138 18.4135 5.3998 18.4459 5.38538C18.5267 5.34926 18.6069 5.31188 18.6871 5.27439C18.9114 5.22881 19.0586 5.29663 19.2656 5.38319Z" fill="#242424"/>
<path d="M15.5156 14.9453C15.9903 15.1035 15.9903 15.1035 16.16 15.1749C16.1982 15.1909 16.2364 15.2068 16.2758 15.2233C16.3156 15.2401 16.3555 15.257 16.3965 15.2744C16.4391 15.2922 16.4817 15.3101 16.5256 15.3285C16.6607 15.3852 16.7957 15.4421 16.9307 15.499C17.0203 15.5367 17.1099 15.5743 17.1996 15.6119C17.4125 15.7013 17.6252 15.791 17.8379 15.881C17.9122 15.9124 17.9865 15.9438 18.0608 15.9751C18.1547 16.0147 18.2485 16.0545 18.3422 16.0943C18.3934 16.116 18.4445 16.1376 18.4972 16.16C18.6094 16.2109 18.6094 16.2109 18.6563 16.2578C18.6606 16.3312 18.6618 16.4048 18.6616 16.4783C18.6616 16.5487 18.6616 16.5487 18.6616 16.6205C18.6613 16.6715 18.6611 16.7225 18.6608 16.7751C18.6608 16.827 18.6607 16.879 18.6606 16.9325C18.6604 17.0992 18.6598 17.2659 18.6592 17.4326C18.6589 17.5453 18.6587 17.658 18.6585 17.7707C18.658 18.0477 18.6572 18.3246 18.6563 18.6016C18.0179 18.3493 17.3839 18.0881 16.752 17.8203C16.6086 17.7596 16.4651 17.6989 16.3217 17.6383C16.2301 17.5996 16.1385 17.5609 16.047 17.5222C16.0043 17.5041 15.9616 17.486 15.9176 17.4674C15.8588 17.4425 15.8588 17.4425 15.7988 17.4171C15.7643 17.4025 15.7299 17.3879 15.6944 17.3729C15.634 17.3466 15.5745 17.3185 15.5156 17.2891C15.5156 16.5156 15.5156 15.7422 15.5156 14.9453Z" fill="#242424"/>
<path d="M15.5156 6.83594C15.9902 6.99414 15.9902 6.99414 16.1701 7.07056C16.2105 7.08763 16.2509 7.10469 16.2925 7.12227C16.3347 7.14029 16.3769 7.15831 16.4203 7.17688C16.4652 7.19589 16.5101 7.21491 16.5564 7.2345C16.6988 7.29485 16.8411 7.35543 16.9834 7.41602C17.1249 7.4761 17.2665 7.53614 17.4081 7.59617C17.4987 7.63464 17.5894 7.67314 17.68 7.71168C17.959 7.83025 18.2384 7.94722 18.5191 8.06158C18.6094 8.10156 18.6094 8.10156 18.6563 8.14844C18.6606 8.22182 18.6618 8.2954 18.6616 8.36891C18.6616 8.43929 18.6616 8.43929 18.6616 8.51109C18.6613 8.56211 18.6611 8.61314 18.6608 8.66571C18.6608 8.71767 18.6607 8.76962 18.6606 8.82315C18.6604 8.98985 18.6598 9.15654 18.6592 9.32324C18.6589 9.43594 18.6587 9.54864 18.6585 9.66135C18.658 9.93829 18.6572 10.2152 18.6563 10.4922C18.0179 10.24 17.3839 9.97875 16.752 9.71096C16.6086 9.65019 16.4651 9.58957 16.3217 9.52896C16.2301 9.49024 16.1385 9.45152 16.047 9.41278C16.0043 9.39472 15.9616 9.37665 15.9176 9.35804C15.8588 9.33312 15.8588 9.33312 15.7988 9.30769C15.7643 9.2931 15.7299 9.27852 15.6944 9.26349C15.634 9.23727 15.5745 9.20912 15.5156 9.17969C15.5156 8.40625 15.5156 7.63281 15.5156 6.83594Z" fill="#242424"/>
<path d="M22.2207 14.9453C22.2207 15.7187 22.2207 16.4922 22.2207 17.2891C21.8579 17.4565 21.4973 17.622 21.129 17.7758C21.0864 17.7936 21.0437 17.8115 20.9998 17.83C20.9107 17.8673 20.8216 17.9045 20.7325 17.9417C20.5975 17.9981 20.4626 18.0547 20.3278 18.1114C20.2404 18.148 20.153 18.1845 20.0656 18.2211C20.026 18.2377 19.9865 18.2543 19.9458 18.2714C19.6595 18.3906 19.3724 18.4953 19.0801 18.6016C19.0801 17.8281 19.0801 17.0547 19.0801 16.2578C19.8103 15.9317 20.5445 15.6178 21.2832 15.3115C21.3269 15.2934 21.3706 15.2752 21.4156 15.2565C21.5404 15.2048 21.6652 15.1531 21.79 15.1015C21.8281 15.0857 21.8662 15.0699 21.9054 15.0536C22.1684 14.9453 22.1684 14.9453 22.2207 14.9453Z" fill="#242424"/>
<path d="M22.2207 6.83594C22.2207 7.60937 22.2207 8.38281 22.2207 9.17969C21.8579 9.34714 21.4973 9.51264 21.129 9.66638C21.0864 9.68427 21.0437 9.70215 20.9998 9.72058C20.9107 9.75789 20.8216 9.79514 20.7325 9.83234C20.5975 9.88873 20.4626 9.94536 20.3278 10.002C20.2404 10.0386 20.153 10.0751 20.0656 10.1117C20.026 10.1283 19.9865 10.1449 19.9458 10.162C19.6595 10.2813 19.3724 10.3859 19.0801 10.4922C19.0801 9.71875 19.0801 8.94531 19.0801 8.14844C19.7682 7.84212 20.4588 7.54404 21.1543 7.25488C21.1916 7.23938 21.2289 7.22388 21.2673 7.2079C22.1624 6.83594 22.1624 6.83594 22.2207 6.83594Z" fill="#242424"/>
<path d="M5.39062 4.53906C5.96297 4.53906 6.53531 4.53906 7.125 4.53906C7.125 5.25063 7.125 5.96219 7.125 6.69531C6.55266 6.69531 5.98031 6.69531 5.39062 6.69531C5.39062 5.98375 5.39062 5.27219 5.39062 4.53906Z" fill="#242424"/>
<path d="M6.375 14.3828C7.05563 14.3828 7.73625 14.3828 8.4375 14.3828C8.4375 14.5066 8.4375 14.6303 8.4375 14.7578C7.75688 14.7578 7.07625 14.7578 6.375 14.7578C6.375 14.6341 6.375 14.5103 6.375 14.3828Z" fill="#242424"/>
<path d="M6.375 11.8047C7.05563 11.8047 7.73625 11.8047 8.4375 11.8047C8.4375 11.9284 8.4375 12.0522 8.4375 12.1797C7.75688 12.1797 7.07625 12.1797 6.375 12.1797C6.375 12.0559 6.375 11.9322 6.375 11.8047Z" fill="#242424"/>
<path d="M6.375 9.22852C7.05563 9.22852 7.73625 9.22852 8.4375 9.22852C8.4375 9.35227 8.4375 9.47602 8.4375 9.60352C7.75688 9.60352 7.07625 9.60352 6.375 9.60352C6.375 9.47977 6.375 9.35602 6.375 9.22852Z" fill="#242424"/>
</g>
<defs>
<clipPath id="clip0_1526_63931">
<rect width="24" height="24" fill="white" transform="translate(0 0.132812)"/>
</clipPath>
</defs>
</svg>